<svg
  width="110"
  height="29"
  viewBox="0 0 110 29"
  fill="none"
  xmlns="http://www.w3.org/2000/svg"
>
  <g clipPath="url(#clip0_115_8434)">
    <path
      d="M35 23.2409V5H38.59V11.969C39.0684 11.3504 39.6712 10.8613 40.3984 10.5018C41.1237 10.1442 41.9236 9.9635 42.7962 9.9635C43.6841 9.9635 44.5051 10.135 45.2571 10.4763C46.0092 10.8193 46.6675 11.2956 47.232 11.9069C47.7965 12.5182 48.2367 13.2318 48.5524 14.0474C48.8682 14.8631 49.027 15.7518 49.027 16.7135C49.027 17.6916 48.8643 18.5967 48.5409 19.427C48.2156 20.2591 47.7621 20.9872 47.1822 21.615C46.6005 22.2427 45.9173 22.7318 45.1308 23.0821C44.3443 23.4325 43.4985 23.6077 42.5914 23.6077C41.7016 23.6077 40.8998 23.4288 40.1802 23.0693C39.4626 22.7117 38.8732 22.2062 38.4101 21.5529L38.3068 23.2409H35ZM41.9484 20.5274C42.5972 20.5274 43.1789 20.365 43.6918 20.0383C44.2046 19.7117 44.6103 19.2683 44.9108 18.7062C45.2093 18.1442 45.3585 17.5037 45.3585 16.7865C45.3585 16.0693 45.2093 15.4288 44.9108 14.8668C44.6122 14.3047 44.2046 13.8595 43.6918 13.5347C43.1789 13.208 42.5972 13.0456 41.9484 13.0456C41.2978 13.0456 40.718 13.208 40.2051 13.5347C39.6923 13.8613 39.2866 14.3047 38.9861 14.8668C38.6857 15.4288 38.5383 16.0693 38.5383 16.7865C38.5383 17.5037 38.6876 18.1442 38.9861 18.7062C39.2846 19.2683 39.6923 19.7135 40.2051 20.0383C40.718 20.365 41.2997 20.5274 41.9484 20.5274Z"
      fill="#0F1013"
      fillOpacity="0.87"
    />
    <path
      d="M55.0531 23.6077C54.3527 23.6077 53.7116 23.5091 53.1299 23.3139C52.5481 23.1186 52.0391 22.8376 51.6047 22.4708C51.1703 22.104 50.8316 21.6752 50.5924 21.1861C50.3532 20.6971 50.2326 20.1587 50.2326 19.573C50.2326 18.7573 50.4642 18.0401 50.9253 17.4215C51.3865 16.8029 52.0372 16.3175 52.8734 15.9671C53.7116 15.6168 54.6857 15.4416 55.7975 15.4416C56.362 15.4416 56.8959 15.4909 57.4011 15.5876C57.9044 15.6861 58.3962 15.823 58.8746 16.0036V15.2463C58.8746 14.5128 58.6565 13.9179 58.2201 13.4617C57.7838 13.0055 57.1906 12.7774 56.4385 12.7774C55.874 12.7774 55.3612 12.9124 54.9 13.1806C54.4388 13.4489 54.1135 13.8285 53.9259 14.3175L50.7187 13.7044C50.9062 12.9544 51.2794 12.2974 51.8343 11.7354C52.3893 11.1733 53.0686 10.7372 53.8724 10.427C54.6761 10.1168 55.5468 9.96167 56.4883 9.96167C57.3609 9.96167 58.1551 10.0931 58.8727 10.3522C59.5903 10.6131 60.2103 10.9872 60.7328 11.4763C61.2533 11.9653 61.6551 12.5401 61.9384 13.2007C62.2216 13.8613 62.3613 14.5985 62.3613 15.4142V23.239H59.1559L59.0526 21.7226C58.6928 22.2774 58.1723 22.7299 57.4891 23.0803C56.8041 23.4325 55.9927 23.6077 55.0531 23.6077ZM53.7709 19.4033C53.7709 19.8595 53.968 20.2354 54.3603 20.5274C54.7526 20.8193 55.2751 20.9671 55.9257 20.9671C56.4902 20.9671 56.9935 20.854 57.4375 20.6241C57.8814 20.396 58.2316 20.0821 58.4881 19.6825C58.7445 19.2828 58.8727 18.8394 58.8727 18.3504V18.2281C58.4976 18.0821 58.0958 17.9635 57.6671 17.8741C57.2404 17.7847 56.8117 17.739 56.385 17.739C55.5812 17.739 54.944 17.8905 54.4752 18.1916C54.0044 18.4945 53.7709 18.8978 53.7709 19.4033Z"
      fill="#0F1013"
      fillOpacity="0.87"
    />
    <path
      d="M69.591 23.6078C68.6342 23.6078 67.7654 23.4618 66.9884 23.168C66.2096 22.8742 65.5532 22.4582 65.0135 21.9217C64.4758 21.3833 64.1026 20.7483 63.8979 20.0147L67.1281 19.3541C67.2984 19.8596 67.6065 20.2592 68.0505 20.553C68.4945 20.8468 69.0245 20.9928 69.6407 20.9928C70.2225 20.9928 70.7009 20.8706 71.076 20.626C71.451 20.3815 71.6405 20.0476 71.6405 19.6242C71.6405 19.2665 71.474 18.9691 71.141 18.7319C70.8081 18.4965 70.2569 18.3122 69.4876 18.1808L68.77 18.0585C67.3003 17.814 66.1847 17.3578 65.4231 16.6899C64.6614 16.022 64.2825 15.1735 64.2825 14.1461C64.2825 13.3304 64.5045 12.6096 64.9485 11.9819C65.3924 11.3541 66.0086 10.8614 66.7951 10.5019C67.5817 10.1443 68.4868 9.96362 69.5125 9.96362C70.4177 9.96362 71.2444 10.106 71.9869 10.3906C72.7313 10.6753 73.3494 11.0786 73.845 11.6005C74.3406 12.1224 74.6832 12.7501 74.8707 13.4837L71.6654 14.1187C71.4951 13.6297 71.2157 13.2465 70.831 12.9691C70.4464 12.6917 69.9967 12.553 69.4838 12.553C68.9537 12.553 68.5174 12.6753 68.1768 12.9198C67.8343 13.1644 67.6639 13.4746 67.6639 13.8487C67.6639 14.1753 67.8304 14.4472 68.1634 14.668C68.4964 14.8888 69.0647 15.064 69.8685 15.1936L70.5861 15.3158C72.0385 15.5603 73.1504 16.022 73.9196 16.6972C74.6889 17.3742 75.0736 18.2337 75.0736 19.2775C75.0736 19.9125 74.9415 20.4928 74.6755 21.0129C74.4095 21.5348 74.0306 21.991 73.535 22.3815C73.0394 22.772 72.4576 23.0749 71.7917 23.2866C71.1296 23.5019 70.3947 23.6078 69.591 23.6078Z"
      fill="#0F1013"
      fillOpacity="0.87"
    />
    <path
      d="M83.2085 23.6078C82.2 23.6078 81.2719 23.4399 80.426 23.106C79.5802 22.772 78.8492 22.2994 78.233 21.6881C77.6187 21.0768 77.1384 20.3523 76.7978 19.5111C76.4552 18.6717 76.2849 17.7556 76.2849 16.7611C76.2849 15.7994 76.4552 14.9034 76.7978 14.0713C77.1403 13.2392 77.6149 12.5184 78.2215 11.9071C78.8281 11.2957 79.5419 10.8195 80.3629 10.4764C81.1838 10.1333 82.0718 9.96362 83.0305 9.96362C84.0218 9.96362 84.9231 10.126 85.7364 10.4527C86.5478 10.7793 87.2444 11.2428 87.8261 11.8468C88.4078 12.449 88.8556 13.168 89.1733 13.9983C89.4891 14.8304 89.6479 15.7592 89.6479 16.7866V17.6425H79.9285C80.0816 18.6041 80.449 19.3578 81.0307 19.9034C81.6125 20.449 82.3473 20.7228 83.2353 20.7228C83.8495 20.7228 84.4102 20.5841 84.9154 20.3067C85.4187 20.0293 85.834 19.6297 86.1593 19.1078L89.3647 20.0859C89.0566 20.8195 88.5954 21.4472 87.9792 21.9691C87.3649 22.491 86.6454 22.8943 85.8244 23.179C85.0035 23.4655 84.1309 23.6078 83.2085 23.6078ZM83.0286 12.6041C82.2421 12.6041 81.58 12.8487 81.0422 13.3377C80.5045 13.8268 80.1486 14.4946 79.9782 15.3432H85.9526C85.8168 14.4965 85.4876 13.8268 84.9652 13.3377C84.4428 12.8487 83.7979 12.6041 83.0286 12.6041Z"
      fill="#0F1013"
      fillOpacity="0.87"
    />
    <path
      d="M97.1838 23.6077C96.3131 23.6077 95.4998 23.4361 94.7477 23.0949C93.9957 22.7518 93.3374 22.2756 92.7728 21.6642C92.2083 21.0529 91.7682 20.3394 91.4524 19.5237C91.1367 18.708 90.9778 17.8212 90.9778 16.8577C90.9778 15.8796 91.1405 14.9745 91.4658 14.1442C91.7911 13.312 92.2428 12.5839 92.8245 11.9562C93.4063 11.3285 94.0856 10.8394 94.8625 10.4891C95.6395 10.1387 96.4815 9.9635 97.3885 9.9635C98.2267 9.9635 98.9922 10.1223 99.683 10.4398C100.376 10.7573 100.952 11.2026 101.413 11.7719V5H105.003V23.2409H101.694L101.595 21.3595C101.116 22.0602 100.496 22.6113 99.7366 23.0091C98.973 23.4088 98.1234 23.6077 97.1838 23.6077ZM98.0545 20.5274C98.7032 20.5274 99.285 20.365 99.7978 20.0383C100.311 19.7117 100.716 19.2683 101.017 18.7062C101.315 18.1442 101.467 17.5037 101.467 16.7865C101.467 16.0693 101.317 15.4288 101.017 14.8668C100.718 14.3047 100.311 13.8595 99.7978 13.5347C99.285 13.208 98.7032 13.0456 98.0545 13.0456C97.4039 13.0456 96.824 13.208 96.3112 13.5347C95.7983 13.8613 95.3926 14.3047 95.0922 14.8668C94.7936 15.4288 94.6425 16.0693 94.6425 16.7865C94.6425 17.5037 94.7917 18.1442 95.0922 18.7062C95.3907 19.2683 95.7964 19.7135 96.3112 20.0383C96.824 20.365 97.4058 20.5274 98.0545 20.5274Z"
      fill="#0F1013"
      fillOpacity="0.87"
    />
  </g>
  <path
    d="M26.4083 11.618C26.4083 13.8695 25.4589 15.9079 23.9212 17.3924L23.8486 17.4617C22.2955 18.9262 20.1618 19.8315 17.8046 19.8334V11.6217H9.17596V11.6199C9.17596 9.36838 10.1254 7.33004 11.6631 5.84545L17.7931 0L23.9212 5.84363C25.4589 7.32822 26.4083 9.36838 26.4083 11.618Z"
    fill="#63D7E5"
  />
  <path
    d="M17.8045 19.8351V19.8861C17.7912 21.9736 16.9506 24.0557 15.2811 25.6459C13.6115 27.238 11.4281 28.0395 9.24089 28.0522H9.13773C6.94859 28.0395 4.76518 27.238 3.09753 25.6459C1.42798 24.0539 0.587468 21.9718 0.574097 19.8861V19.7877C0.587468 17.7002 1.42798 15.6181 3.09753 14.0279C4.76709 12.4358 6.9505 11.6343 9.13773 11.6216H9.17785C9.17785 13.8712 10.1272 15.9096 11.665 17.3942L11.7376 17.4634C13.2944 18.9298 15.432 19.8351 17.7931 19.8351H17.8045Z"
    fill="#6464F6"
  />
  <defs>
    <clipPath id="clip0_115_8434">
      <rect
        width="70.0049"
        height="18.6077"
        fill="white"
        transform="translate(35 5)"
      />
    </clipPath>
  </defs>
</svg>