<svg width="465" height="139" viewBox="0 0 465 139" fill="none" xmlns="http://www.w3.org/2000/svg">
<path d="M94.4816 44.4624L47.2408 91.7032H0L47.2408 44.4624H94.4816Z" fill="#4B41FF"/>
<path d="M105.598 91.7036L58.3573 138.944H0L47.2408 91.7036H105.598Z" fill="#FF1F85"/>
<path d="M47.2408 0L0 47.2408V91.7033L47.2408 44.4626V0Z" fill="#008CFF"/>
<path d="M146.778 118.701V34.4211H162.595V66.6193C164.704 63.7572 167.34 61.4977 170.503 59.8407C173.742 58.1837 177.282 57.3552 181.123 57.3552C185.039 57.3552 188.655 58.1461 191.969 59.7277C195.283 61.3094 198.182 63.5313 200.668 66.3933C203.153 69.1801 205.074 72.4564 206.429 76.2222C207.861 79.9881 208.576 84.0929 208.576 88.5366C208.576 93.0556 207.861 97.2357 206.429 101.077C204.998 104.918 203.003 108.307 200.442 111.245C197.881 114.107 194.868 116.366 191.404 118.023C187.939 119.605 184.211 120.396 180.219 120.396C176.303 120.396 172.763 119.567 169.599 117.91C166.436 116.253 163.838 113.919 161.804 110.906L161.352 118.701H146.778ZM177.395 106.161C180.257 106.161 182.818 105.408 185.077 103.901C187.337 102.395 189.107 100.361 190.387 97.8006C191.743 95.1645 192.42 92.1895 192.42 88.8755C192.42 85.5616 191.743 82.6242 190.387 80.0634C189.107 77.4273 187.337 75.3561 185.077 73.8497C182.818 72.3434 180.257 71.5902 177.395 71.5902C174.533 71.5902 171.972 72.3434 169.712 73.8497C167.453 75.3561 165.645 77.4273 164.289 80.0634C163.009 82.6242 162.369 85.5616 162.369 88.8755C162.369 92.1895 163.009 95.1645 164.289 97.8006C165.645 100.361 167.453 102.395 169.712 103.901C171.972 105.408 174.533 106.161 177.395 106.161ZM237.348 120.396C234.26 120.396 231.435 119.944 228.875 119.04C226.314 118.136 224.054 116.856 222.096 115.199C220.213 113.467 218.744 111.471 217.69 109.211C216.636 106.952 216.108 104.466 216.108 101.755C216.108 97.9889 217.125 94.675 219.159 91.8129C221.192 88.9508 224.054 86.729 227.745 85.1473C231.435 83.4903 235.728 82.6619 240.624 82.6619C243.11 82.6619 245.444 82.8878 247.629 83.3397C249.888 83.7916 252.072 84.4318 254.181 85.2603V81.758C254.181 78.3688 253.202 75.6197 251.244 73.5108C249.361 71.4019 246.762 70.3475 243.449 70.3475C240.963 70.3475 238.704 70.9877 236.67 72.2681C234.636 73.4731 233.205 75.2054 232.377 77.465L218.255 74.6406C219.083 71.176 220.703 68.1633 223.113 65.6025C225.598 62.9664 228.611 60.9328 232.151 59.5018C235.691 58.0708 239.532 57.3552 243.674 57.3552C247.516 57.3552 251.018 57.9578 254.181 59.1629C257.345 60.3679 260.056 62.1002 262.315 64.3597C264.65 66.6193 266.42 69.293 267.625 72.381C268.906 75.3937 269.546 78.783 269.546 82.5489V118.701H255.424L254.972 111.697C253.39 114.257 251.093 116.366 248.081 118.023C245.068 119.605 241.49 120.396 237.348 120.396ZM231.699 100.964C231.699 103.073 232.565 104.805 234.297 106.161C236.03 107.517 238.327 108.194 241.189 108.194C243.674 108.194 245.896 107.667 247.855 106.613C249.813 105.558 251.357 104.127 252.487 102.32C253.616 100.437 254.181 98.3655 254.181 96.106V95.5411C252.524 94.8633 250.754 94.336 248.871 93.9594C246.988 93.5075 245.105 93.2816 243.223 93.2816C239.683 93.2816 236.858 93.9971 234.749 95.4281C232.716 96.7838 231.699 98.6291 231.699 100.964ZM303.616 120.396C299.398 120.396 295.557 119.718 292.093 118.362C288.703 117.007 285.804 115.086 283.393 112.6C281.059 110.115 279.439 107.178 278.535 103.788L292.77 100.738C293.524 103.073 294.879 104.918 296.838 106.274C298.796 107.63 301.131 108.307 303.842 108.307C306.403 108.307 308.512 107.743 310.169 106.613C311.826 105.483 312.654 103.939 312.654 101.981C312.654 100.324 311.901 98.968 310.395 97.9136C308.964 96.7838 306.554 95.9177 303.164 95.3152L300.001 94.7503C293.524 93.6205 288.59 91.5116 285.201 88.4236C281.887 85.3356 280.23 81.4191 280.23 76.6741C280.23 72.9083 281.209 69.5943 283.167 66.7322C285.126 63.7949 287.837 61.4977 291.302 59.8407C294.766 58.1837 298.758 57.3552 303.277 57.3552C307.269 57.3552 310.884 58.0331 314.123 59.3888C317.437 60.6692 320.186 62.5145 322.37 64.9246C324.554 67.3348 326.061 70.2345 326.889 73.6238L312.767 76.5612C312.014 74.3016 310.771 72.5317 309.039 71.2513C307.382 69.9709 305.424 69.3307 303.164 69.3307C300.829 69.3307 298.909 69.8956 297.402 71.0253C295.896 72.1551 295.143 73.5861 295.143 75.3184C295.143 76.8248 295.858 78.1052 297.289 79.1596C298.796 80.1387 301.319 80.9296 304.859 81.5321L308.022 82.097C314.424 83.2267 319.32 85.3733 322.709 88.5366C326.098 91.6246 327.793 95.5788 327.793 100.399C327.793 103.336 327.19 106.01 325.985 108.42C324.856 110.831 323.199 112.939 321.014 114.747C318.83 116.555 316.269 117.948 313.332 118.927C310.395 119.906 307.156 120.396 303.616 120.396ZM365.89 120.396C361.446 120.396 357.341 119.643 353.575 118.136C349.885 116.555 346.684 114.37 343.972 111.584C341.261 108.722 339.152 105.37 337.646 101.529C336.139 97.6123 335.386 93.3569 335.386 88.7626C335.386 84.3188 336.139 80.1764 337.646 76.3352C339.152 72.494 341.223 69.1801 343.859 66.3933C346.571 63.5313 349.734 61.3094 353.349 59.7277C356.965 58.1461 360.881 57.3552 365.099 57.3552C369.467 57.3552 373.421 58.1084 376.961 59.6148C380.577 61.1211 383.665 63.2677 386.225 66.0544C388.786 68.8411 390.744 72.1551 392.1 75.9963C393.531 79.8375 394.247 84.1305 394.247 88.8755V92.8297H351.429C352.107 97.2734 353.726 100.776 356.287 103.336C358.848 105.822 362.086 107.065 366.003 107.065C368.714 107.065 371.162 106.424 373.346 105.144C375.606 103.864 377.451 102.018 378.882 99.6082L393.004 104.127C391.648 107.517 389.615 110.416 386.903 112.826C384.192 115.237 381.028 117.12 377.413 118.475C373.798 119.756 369.957 120.396 365.89 120.396ZM365.099 69.5566C361.634 69.5566 358.697 70.6864 356.287 72.9459C353.952 75.2054 352.408 78.2934 351.655 82.2099H377.978C377.376 78.2934 375.907 75.2054 373.572 72.9459C371.313 70.6864 368.488 69.5566 365.099 69.5566ZM429.695 120.396C425.854 120.396 422.277 119.605 418.963 118.023C415.649 116.442 412.749 114.257 410.264 111.471C407.778 108.609 405.82 105.295 404.389 101.529C403.033 97.763 402.355 93.6582 402.355 89.2145C402.355 84.6954 403.071 80.5153 404.502 76.6741C405.933 72.8329 407.929 69.4813 410.49 66.6193C413.05 63.6819 416.025 61.4224 419.415 59.8407C422.879 58.1837 426.607 57.3552 430.599 57.3552C434.29 57.3552 437.641 58.1084 440.654 59.6148C443.742 61.0458 446.303 63.0794 448.337 65.7155V34.4211H464.153V118.701H449.579L449.127 110.002C447.018 113.241 444.269 115.801 440.88 117.684C437.566 119.492 433.838 120.396 429.695 120.396ZM433.537 106.161C436.399 106.161 438.96 105.408 441.219 103.901C443.479 102.395 445.249 100.361 446.529 97.8006C447.885 95.1645 448.562 92.1895 448.562 88.8755C448.562 85.5616 447.885 82.6242 446.529 80.0634C445.249 77.4273 443.479 75.3561 441.219 73.8497C438.96 72.3434 436.399 71.5902 433.537 71.5902C430.675 71.5902 428.114 72.3434 425.854 73.8497C423.595 75.3561 421.787 77.4273 420.431 80.0634C419.151 82.6242 418.511 85.5616 418.511 88.8755C418.511 92.1895 419.151 95.1645 420.431 97.8006C421.787 100.361 423.595 102.395 425.854 103.901C428.114 105.408 430.675 106.161 433.537 106.161Z" fill="black"/>
</svg>
