<svg width="107" height="32" viewBox="0 0 107 32" fill="none" xmlns="http://www.w3.org/2000/svg">
<path d="M21.6811 10.2031L10.8406 21.0437H0L10.8406 10.2031H21.6811Z" fill="#4B41FF"/>
<path d="M24.2321 21.0439L13.3915 31.8845H0L10.8406 21.0439H24.2321Z" fill="#FF1F85"/>
<path d="M10.8406 0L0 10.8406V21.0436L10.8406 10.203V0Z" fill="#008CFF"/>
<path d="M33.6823 27.0791V7.73897H37.3118V15.1276C37.7957 14.4709 38.4006 13.9524 39.1265 13.5721C39.8697 13.1919 40.6821 13.0018 41.5635 13.0018C42.4622 13.0018 43.2918 13.1832 44.0523 13.5462C44.8128 13.9091 45.4782 14.419 46.0486 15.0758C46.6189 15.7153 47.0596 16.4671 47.3707 17.3313C47.6991 18.1954 47.8633 19.1374 47.8633 20.1571C47.8633 21.1941 47.6991 22.1533 47.3707 23.0348C47.0423 23.9162 46.5843 24.694 45.9967 25.368C45.4091 26.0248 44.7177 26.5433 43.9227 26.9236C43.1277 27.2865 42.2721 27.468 41.3561 27.468C40.4574 27.468 39.6451 27.2779 38.9191 26.8976C38.1932 26.5174 37.597 25.9816 37.1303 25.2903L37.0266 27.0791H33.6823ZM40.708 24.2014C41.3647 24.2014 41.9524 24.0286 42.4709 23.6829C42.9894 23.3372 43.3955 22.8706 43.6894 22.283C44.0005 21.678 44.156 20.9953 44.156 20.2349C44.156 19.4744 44.0005 18.8003 43.6894 18.2127C43.3955 17.6078 42.9894 17.1325 42.4709 16.7868C41.9524 16.4412 41.3647 16.2683 40.708 16.2683C40.0512 16.2683 39.4636 16.4412 38.9451 16.7868C38.4266 17.1325 38.0118 17.6078 37.7007 18.2127C37.4068 18.8003 37.2599 19.4744 37.2599 20.2349C37.2599 20.9953 37.4068 21.678 37.7007 22.283C38.0118 22.8706 38.4266 23.3372 38.9451 23.6829C39.4636 24.0286 40.0512 24.2014 40.708 24.2014ZM54.4657 27.468C53.7571 27.468 53.109 27.3643 52.5213 27.1569C51.9337 26.9495 51.4152 26.6557 50.9658 26.2754C50.5337 25.8779 50.1967 25.4199 49.9547 24.9014C49.7128 24.3829 49.5918 23.8125 49.5918 23.1903C49.5918 22.3262 49.8251 21.5657 50.2918 20.9089C50.7584 20.2522 51.4152 19.7423 52.2621 19.3793C53.109 18.9991 54.0941 18.809 55.2175 18.809C55.7879 18.809 56.3237 18.8608 56.8249 18.9645C57.3434 19.0682 57.8446 19.2152 58.3285 19.4053V18.6016C58.3285 17.8238 58.1039 17.193 57.6545 16.7091C57.2224 16.2251 56.6261 15.9832 55.8657 15.9832C55.2953 15.9832 54.7768 16.1301 54.3102 16.4239C53.8435 16.7004 53.5151 17.0979 53.325 17.6164L50.0844 16.9683C50.2745 16.1733 50.6461 15.4819 51.1991 14.8943C51.7695 14.2894 52.4608 13.8227 53.2732 13.4943C54.0855 13.166 54.9669 13.0018 55.9175 13.0018C56.799 13.0018 57.6026 13.14 58.3285 13.4166C59.0545 13.6931 59.6767 14.0906 60.1952 14.6091C60.7309 15.1276 61.1371 15.7412 61.4136 16.4498C61.7075 17.1411 61.8544 17.9189 61.8544 18.7831V27.0791H58.6137L58.51 25.4717C58.1471 26.0594 57.6199 26.5433 56.9286 26.9236C56.2373 27.2865 55.4163 27.468 54.4657 27.468ZM53.1695 23.0089C53.1695 23.4928 53.3682 23.8903 53.7657 24.2014C54.1632 24.5125 54.6904 24.6681 55.3472 24.6681C55.9175 24.6681 56.4274 24.5471 56.8767 24.3051C57.3261 24.0631 57.6804 23.7348 57.9397 23.32C58.1989 22.8879 58.3285 22.4126 58.3285 21.8941V21.7645C57.9483 21.6089 57.5422 21.4879 57.1101 21.4015C56.678 21.2978 56.2459 21.246 55.8138 21.246C55.0015 21.246 54.3534 21.4101 53.8694 21.7385C53.4028 22.0496 53.1695 22.4731 53.1695 23.0089ZM69.6726 27.468C68.7047 27.468 67.8233 27.3124 67.0282 27.0013C66.2505 26.6902 65.5851 26.2495 65.032 25.6791C64.4962 25.1088 64.1246 24.4347 63.9172 23.657L67.1838 22.957C67.3566 23.4928 67.6677 23.9162 68.1171 24.2273C68.5665 24.5384 69.1023 24.694 69.7245 24.694C70.3121 24.694 70.796 24.5644 71.1763 24.3051C71.5565 24.0459 71.7466 23.6916 71.7466 23.2422C71.7466 22.862 71.5738 22.5508 71.2281 22.3089C70.8997 22.0496 70.3467 21.8509 69.5689 21.7126L68.843 21.583C67.3566 21.3237 66.2246 20.8398 65.4468 20.1312C64.6863 19.4226 64.3061 18.5238 64.3061 17.435C64.3061 16.5708 64.5308 15.8103 64.9802 15.1536C65.4295 14.4795 66.0517 13.9524 66.8468 13.5721C67.6418 13.1919 68.5578 13.0018 69.5948 13.0018C70.5109 13.0018 71.3405 13.1573 72.0836 13.4684C72.8441 13.7622 73.475 14.1857 73.9762 14.7387C74.4774 15.2918 74.8231 15.9572 75.0132 16.735L71.7725 17.409C71.5997 16.8905 71.3145 16.4844 70.917 16.1906C70.5368 15.8967 70.0874 15.7498 69.5689 15.7498C69.0331 15.7498 68.5924 15.8795 68.2467 16.1387C67.9011 16.398 67.7282 16.7263 67.7282 17.1239C67.7282 17.4695 67.8924 17.7633 68.2208 18.0053C68.5665 18.23 69.1455 18.4115 69.9578 18.5497L70.6837 18.6794C72.1528 18.9386 73.2762 19.4312 74.0539 20.1571C74.8317 20.8657 75.2206 21.7731 75.2206 22.8792C75.2206 23.5533 75.0823 24.1668 74.8058 24.7199C74.5465 25.273 74.1663 25.7569 73.6651 26.1717C73.1639 26.5865 72.5762 26.9063 71.9022 27.131C71.2281 27.3556 70.4849 27.468 69.6726 27.468ZM83.9628 27.468C82.9431 27.468 82.0011 27.2951 81.137 26.9495C80.2901 26.5865 79.5555 26.0853 78.9333 25.4458C78.3111 24.7891 77.8272 24.0199 77.4815 23.1385C77.1359 22.2397 76.963 21.2632 76.963 20.2089C76.963 19.1892 77.1359 18.2386 77.4815 17.3572C77.8272 16.4757 78.3025 15.7153 78.9074 15.0758C79.5296 14.419 80.2555 13.9091 81.0851 13.5462C81.9147 13.1832 82.8135 13.0018 83.7813 13.0018C84.7838 13.0018 85.6911 13.1746 86.5035 13.5203C87.3331 13.8659 88.0417 14.3585 88.6293 14.998C89.217 15.6375 89.6663 16.398 89.9774 17.2794C90.3058 18.1609 90.47 19.146 90.47 20.2349V21.1423H80.6444C80.7999 22.162 81.1715 22.9657 81.7592 23.5533C82.3468 24.1236 83.09 24.4088 83.9887 24.4088C84.6109 24.4088 85.1726 24.2619 85.6739 23.9681C86.1924 23.6743 86.6158 23.2508 86.9442 22.6978L90.1848 23.7348C89.8737 24.5125 89.4071 25.1779 88.7849 25.731C88.1627 26.2841 87.4368 26.7161 86.6072 27.0273C85.7776 27.3211 84.8961 27.468 83.9628 27.468ZM83.7813 15.8017C82.9863 15.8017 82.3122 16.0609 81.7592 16.5794C81.2234 17.0979 80.8691 17.8066 80.6962 18.7053H86.7368C86.5985 17.8066 86.2615 17.0979 85.7257 16.5794C85.2072 16.0609 84.5591 15.8017 83.7813 15.8017ZM98.6046 27.468C97.7232 27.468 96.9022 27.2865 96.1417 26.9236C95.3813 26.5606 94.7159 26.0594 94.1455 25.4199C93.5752 24.7631 93.1258 24.0027 92.7974 23.1385C92.4863 22.2743 92.3307 21.3324 92.3307 20.3126C92.3307 19.2756 92.4949 18.3164 92.8233 17.435C93.1517 16.5535 93.6097 15.7844 94.1974 15.1276C94.785 14.4536 95.4677 13.9351 96.2454 13.5721C97.0405 13.1919 97.896 13.0018 98.812 13.0018C99.6589 13.0018 100.428 13.1746 101.119 13.5203C101.828 13.8487 102.416 14.3153 102.882 14.9202V7.73897H106.512V27.0791H103.167L103.064 25.0829C102.58 25.8261 101.949 26.4137 101.171 26.8458C100.411 27.2606 99.5552 27.468 98.6046 27.468ZM99.4861 24.2014C100.143 24.2014 100.73 24.0286 101.249 23.6829C101.767 23.3372 102.174 22.8706 102.467 22.283C102.779 21.678 102.934 20.9953 102.934 20.2349C102.934 19.4744 102.779 18.8003 102.467 18.2127C102.174 17.6078 101.767 17.1325 101.249 16.7868C100.73 16.4412 100.143 16.2683 99.4861 16.2683C98.8293 16.2683 98.2417 16.4412 97.7232 16.7868C97.2047 17.1325 96.7899 17.6078 96.4788 18.2127C96.1849 18.8003 96.038 19.4744 96.038 20.2349C96.038 20.9953 96.1849 21.678 96.4788 22.283C96.7899 22.8706 97.2047 23.3372 97.7232 23.6829C98.2417 24.0286 98.8293 24.2014 99.4861 24.2014Z" fill="white"/>
</svg>
